<mxfile host="app.diagrams.net" agent="Mozilla/5.0 (X11; Linux x86_64; rv:128.0) Gecko/20100101 Firefox/128.0" version="24.7.7">
  <diagram name="Page-1" id="D0yitoSqP1dPm0VC_xCv">
    <mxGraphModel dx="1348" dy="474" grid="1" gridSize="10" guides="1" tooltips="1" connect="1" arrows="1" fold="1" page="1" pageScale="1" pageWidth="850" pageHeight="1100" math="0" shadow="0">
      <root>
        <mxCell id="0" />
        <mxCell id="1" parent="0" />
        <mxCell id="-jYUmOvEF8XYk1fg6gca-1" value="&lt;font face=&quot;Helvetica&quot;&gt;应用层&lt;/font&gt;" style="ellipse;whiteSpace=wrap;html=1;aspect=fixed;verticalAlign=top;fillColor=#dae8fc;strokeColor=#6c8ebf;horizontal=1;spacingTop=6;direction=west;sketch=1;curveFitting=1;jiggle=2;fontFamily=Helvetica;" parent="1" vertex="1">
          <mxGeometry x="340" y="185" width="170" height="170" as="geometry" />
        </mxCell>
        <mxCell id="-jYUmOvEF8XYk1fg6gca-2" value="业务逻辑" style="ellipse;whiteSpace=wrap;html=1;aspect=fixed;fillColor=#e1d5e7;strokeColor=#9673a6;sketch=1;curveFitting=1;jiggle=2;" parent="1" vertex="1">
          <mxGeometry x="383" y="227.5" width="85" height="85" as="geometry" />
        </mxCell>
      </root>
    </mxGraphModel>
  </diagram>
</mxfile>
